<svg xmlns="http://www.w3.org/2000/svg" xmlns:xlink="http://www.w3.org/1999/xlink" width="700" height="700" viewBox="0 0 700 700">
  <defs>
    <style>
      .cls-1 {
        fill: #e5edfa;
      }

      .cls-2 {
        fill: #383f57;
      }

      .cls-3 {
        fill: #f0917b;
      }

      .cls-4 {
        fill: #d2dceb;
      }

      .cls-5 {
        fill: #f7faff;
      }

      .cls-6 {
        fill: #72571a;
      }

      .cls-7 {
        fill: url(#linear-gradient);
      }

      .cls-8 {
        fill: #ffbf0f;
      }

      .cls-9 {
        fill: url(#linear-gradient-2);
      }

      .cls-10 {
        fill: #141c3c;
      }

      .cls-11 {
        fill: #eb7a6c;
      }

      .cls-12 {
        fill: #ed6964;
      }

      .cls-13 {
        fill: #5c4b13;
      }

      .cls-14 {
        fill: #9d8989;
      }

      .cls-15 {
        fill: #fceded;
      }

      .cls-16 {
        fill: url(#linear-gradient-3);
      }

      .cls-17 {
        fill: #361a13;
      }

      .cls-18 {
        fill: url(#linear-gradient-4);
      }

      .cls-19 {
        fill: url(#linear-gradient-5);
      }

      .cls-20 {
        fill: url(#linear-gradient-6);
      }

      .cls-21 {
        fill: #4e4218;
      }

      .cls-22 {
        fill: url(#linear-gradient-7);
      }

      .cls-23, .cls-25, .cls-27 {
        opacity: 0.457;
      }

      .cls-23 {
        fill: url(#linear-gradient-8);
      }

      .cls-24 {
        fill: url(#linear-gradient-9);
      }

      .cls-25 {
        fill: url(#linear-gradient-10);
      }

      .cls-26 {
        fill: url(#linear-gradient-11);
      }

      .cls-27 {
        fill: url(#linear-gradient-12);
      }

      .cls-28 {
        fill: url(#linear-gradient-13);
      }

      .cls-29 {
        fill: url(#linear-gradient-14);
      }

      .cls-30 {
        fill: url(#linear-gradient-15);
      }

      .cls-31 {
        fill: url(#linear-gradient-16);
      }

      .cls-32 {
        fill: url(#linear-gradient-17);
      }

      .cls-33 {
        fill: url(#linear-gradient-18);
      }

      .cls-34 {
        fill: url(#linear-gradient-19);
      }

      .cls-35 {
        fill: url(#linear-gradient-20);
      }

      .cls-36 {
        fill: url(#linear-gradient-21);
      }

      .cls-37 {
        fill: url(#linear-gradient-22);
      }

      .cls-38 {
        fill: #4b2820;
      }

      .cls-39 {
        fill: url(#linear-gradient-23);
      }

      .cls-40 {
        fill: #9dbeff;
      }

      .cls-41 {
        fill: #6b94e5;
      }

      .cls-42 {
        fill: #363131;
      }

      .cls-43 {
        fill: url(#linear-gradient-24);
      }

      .cls-44 {
        fill: url(#linear-gradient-25);
      }

      .cls-45 {
        fill: url(#linear-gradient-26);
      }

      .cls-46 {
        fill: url(#linear-gradient-27);
      }

      .cls-47 {
        fill: url(#linear-gradient-28);
      }

      .cls-48 {
        fill: url(#linear-gradient-29);
      }

      .cls-49 {
        fill: url(#linear-gradient-30);
      }

      .cls-50 {
        fill: url(#linear-gradient-31);
      }

      .cls-51 {
        fill: #48281b;
      }

      .cls-52 {
        fill: url(#linear-gradient-32);
      }

      .cls-53 {
        fill: url(#linear-gradient-33);
      }
    </style>
    <linearGradient id="linear-gradient" x1="0.5" y1="0.268" x2="0.5" y2="1.147" gradientUnits="objectBoundingBox">
      <stop offset="0" stop-color="#ffbf0f"/>
      <stop offset="1" stop-color="#d90"/>
    </linearGradient>
    <linearGradient id="linear-gradient-2" x1="0.5" x2="0.5" y2="1.068" gradientUnits="objectBoundingBox">
      <stop offset="0" stop-color="#e39f06" stop-opacity="0.98"/>
      <stop offset="1" stop-color="#ffbf0f"/>
    </linearGradient>
    <linearGradient id="linear-gradient-3" x1="0.337" y1="0.385" x2="0.159" y2="0.381" gradientUnits="objectBoundingBox">
      <stop offset="0" stop-color="#f0917b"/>
      <stop offset="1" stop-color="#ee8065"/>
    </linearGradient>
    <linearGradient id="linear-gradient-4" x1="0.627" y1="0.599" x2="0.479" y2="0.811" gradientUnits="objectBoundingBox">
      <stop offset="0" stop-color="#f0917b"/>
      <stop offset="1" stop-color="#ed775a"/>
    </linearGradient>
    <linearGradient id="linear-gradient-5" x1="0.526" y1="0.179" x2="0.854" y2="-0.042" gradientUnits="objectBoundingBox">
      <stop offset="0" stop-color="#f0917b"/>
      <stop offset="1" stop-color="#ed765a"/>
    </linearGradient>
    <linearGradient id="linear-gradient-6" x1="0.776" y1="0.544" x2="1.014" y2="1.181" gradientUnits="objectBoundingBox">
      <stop offset="0" stop-color="#f0917b"/>
      <stop offset="1" stop-color="#ea5531"/>
    </linearGradient>
    <linearGradient id="linear-gradient-7" x1="0.5" x2="0.158" y2="0.677" gradientUnits="objectBoundingBox">
      <stop offset="0" stop-color="#868613"/>
      <stop offset="1" stop-color="#363607"/>
    </linearGradient>
    <linearGradient id="linear-gradient-8" x1="0.445" y1="0.949" x2="-0.174" y2="0.488" gradientUnits="objectBoundingBox">
      <stop offset="0" stop-color="#5a5a03"/>
      <stop offset="1" stop-color="#121201"/>
    </linearGradient>
    <linearGradient id="linear-gradient-9" x1="0.894" y1="0.027" x2="-0.083" y2="0.872" gradientUnits="objectBoundingBox">
      <stop offset="0" stop-color="#77770a"/>
      <stop offset="1" stop-color="#363607"/>
    </linearGradient>
    <linearGradient id="linear-gradient-10" x1="0.675" y1="0.897" x2="0.042" y2="0.71" xlink:href="#linear-gradient-8"/>
    <linearGradient id="linear-gradient-11" x1="0.5" x2="0.406" y2="0.783" gradientUnits="objectBoundingBox">
      <stop offset="0" stop-color="#6c6c0e"/>
      <stop offset="1" stop-color="#363607"/>
    </linearGradient>
    <linearGradient id="linear-gradient-12" x1="0.131" y1="0.818" x2="1.055" y2="0.997" gradientUnits="objectBoundingBox">
      <stop offset="0" stop-color="#81811b"/>
      <stop offset="0.176" stop-color="#767619"/>
      <stop offset="1" stop-color="#41410e"/>
    </linearGradient>
    <linearGradient id="linear-gradient-13" x1="0.5" y1="0.044" x2="0.5" y2="1" gradientUnits="objectBoundingBox">
      <stop offset="0" stop-color="#8b7070"/>
      <stop offset="1" stop-color="#523e3e"/>
    </linearGradient>
    <linearGradient id="linear-gradient-14" x1="0.28" y1="0.729" x2="0.461" y2="0.317" xlink:href="#linear-gradient-11"/>
    <linearGradient id="linear-gradient-15" x1="0.5" x2="0.5" y2="1" gradientUnits="objectBoundingBox">
      <stop offset="0" stop-color="#646409"/>
      <stop offset="1" stop-color="#323205"/>
    </linearGradient>
    <linearGradient id="linear-gradient-16" x1="-0.11" y1="0.009" x2="0.917" y2="0.846" gradientUnits="objectBoundingBox">
      <stop offset="0" stop-color="#7b7e42"/>
      <stop offset="0.512" stop-color="#515221"/>
      <stop offset="1" stop-color="#4f501d"/>
    </linearGradient>
    <linearGradient id="linear-gradient-17" x1="0.365" y1="0.309" x2="0.93" y2="0.785" gradientUnits="objectBoundingBox">
      <stop offset="0" stop-color="#444617"/>
      <stop offset="1" stop-color="#39390a"/>
    </linearGradient>
    <linearGradient id="linear-gradient-18" x1="0.5" x2="0.5" y2="1" gradientUnits="objectBoundingBox">
      <stop offset="0" stop-color="#7e8144"/>
      <stop offset="0.301" stop-color="#525324"/>
      <stop offset="1" stop-color="#40400b"/>
    </linearGradient>
    <linearGradient id="linear-gradient-19" x1="0.5" x2="0.5" y2="1" gradientUnits="objectBoundingBox">
      <stop offset="0" stop-color="#444617"/>
      <stop offset="1" stop-color="#363607"/>
    </linearGradient>
    <linearGradient id="linear-gradient-20" x1="0.571" y1="-0.023" x2="1.053" y2="0.841" gradientUnits="objectBoundingBox">
      <stop offset="0" stop-color="#74773c"/>
      <stop offset="0.468" stop-color="#444517"/>
      <stop offset="1" stop-color="#54551b"/>
    </linearGradient>
    <linearGradient id="linear-gradient-21" x1="0.486" y1="0.216" x2="0.5" y2="1" gradientUnits="objectBoundingBox">
      <stop offset="0" stop-color="#444617"/>
      <stop offset="1" stop-color="#383801"/>
    </linearGradient>
    <linearGradient id="linear-gradient-22" x1="0.5" y1="-0.031" x2="0.524" y2="1.183" gradientUnits="objectBoundingBox">
      <stop offset="0" stop-color="#8b7070"/>
      <stop offset="0.136" stop-color="#6c5252"/>
      <stop offset="0.437" stop-color="#6e5454"/>
      <stop offset="1" stop-color="#463838"/>
    </linearGradient>
    <linearGradient id="linear-gradient-23" x1="0.418" y1="0.414" x2="0.478" y2="1.364" gradientUnits="objectBoundingBox">
      <stop offset="0" stop-color="#383f57"/>
      <stop offset="1" stop-color="#151d34"/>
    </linearGradient>
    <linearGradient id="linear-gradient-24" x1="0.733" y1="0.199" x2="1.202" y2="0.167" xlink:href="#linear-gradient-6"/>
    <linearGradient id="linear-gradient-25" x1="0.894" y1="0.661" x2="0.013" y2="0.632" gradientUnits="objectBoundingBox">
      <stop offset="0" stop-color="#4d1614"/>
      <stop offset="1" stop-color="#8d4a30"/>
    </linearGradient>
    <linearGradient id="linear-gradient-26" x1="0.129" y1="0.797" x2="0.97" y2="-0.28" xlink:href="#linear-gradient-25"/>
    <linearGradient id="linear-gradient-27" x1="0.343" y1="0.73" x2="-0.057" y2="1.096" gradientUnits="objectBoundingBox">
      <stop offset="0" stop-color="#8d4a30"/>
      <stop offset="1" stop-color="#472518"/>
    </linearGradient>
    <linearGradient id="linear-gradient-28" x1="0.408" y1="0.235" x2="0.682" y2="0.582" gradientUnits="objectBoundingBox">
      <stop offset="0" stop-color="#e0a387"/>
      <stop offset="1" stop-color="#ac6c54"/>
    </linearGradient>
    <linearGradient id="linear-gradient-29" x1="0.976" y1="0.374" x2="0.248" y2="-0.163" xlink:href="#linear-gradient-25"/>
    <linearGradient id="linear-gradient-30" x1="1.248" y1="1.119" x2="0.115" y2="0.204" gradientUnits="objectBoundingBox">
      <stop offset="0" stop-color="#521a16"/>
      <stop offset="1" stop-color="#8d4a30"/>
    </linearGradient>
    <linearGradient id="linear-gradient-31" x1="0.562" y1="0.911" x2="0.706" y2="-0.093" gradientUnits="objectBoundingBox">
      <stop offset="0" stop-color="#753625"/>
      <stop offset="1" stop-color="#8d4a30"/>
    </linearGradient>
    <linearGradient id="linear-gradient-32" x1="0.246" y1="0.764" x2="0.156" y2="0.937" gradientUnits="objectBoundingBox">
      <stop offset="0" stop-color="#f0917b"/>
      <stop offset="1" stop-color="#ed7659"/>
    </linearGradient>
    <linearGradient id="linear-gradient-33" x1="1.112" y1="0.423" x2="1.227" y2="1.353" xlink:href="#linear-gradient-6"/>
  </defs>
  <g id="Group_387" data-name="Group 387" transform="translate(-317 -345)">
    <path id="Path_3938" data-name="Path 3938" class="cls-1" d="M350,0C543.3,0,700,156.7,700,350S543.3,700,350,700,0,543.3,0,350,156.7,0,350,0Z" transform="translate(317 345)"/>
    <path id="Intersection_15" data-name="Intersection 15" class="cls-2" d="M0,0C56.975,5.733,154.307,13.008,315.207,13.169c134.454.134,224.617-4.827,284-9.788,11.935-1,22.635-2,32.193-2.951C574.919,117.868,454.83,198.916,315.8,198.916,176.608,198.916,56.393,117.664,0,0Z" transform="translate(351.199 846.084)"/>
    <path id="Path_3776" data-name="Path 3776" class="cls-3" d="M-748.463,4268.178l8.629,2.728a129.641,129.641,0,0,1,2.542,42.31,193.138,193.138,0,0,1-7.39,31.555,127.855,127.855,0,0,0-6.546,40.3l17.519,29.688,80.579,57.956-26.6,25.542s-12.84.226-37.148-10.3-53.605-29.216-53.605-29.216l49.289,50.524-87.255-18.075s-30.91-34.977-31.642-56.092,19.519-50.03,19.519-50.03,1.022-33.337-7.216-51.193-4.75-62.967-4.75-62.967l8.529-2.728Z" transform="translate(1361.119 -3682.936)"/>
    <g id="Group_388" data-name="Group 388">
      <path id="Intersection_30" data-name="Intersection 30" class="cls-4" d="M22.431,344.338a24,24,0,0,1-24-24V89.225a3.37,3.37,0,0,1,0-3.3V.787C108.236,8.2,203.82,68.436,260.724,156.661V320.338a24,24,0,0,1-24,24Z" transform="translate(699.12 346.001)"/>
      <path id="Intersection_17" data-name="Intersection 17" class="cls-5" d="M24,333.434a24,24,0,0,1-24-24V3.274c100.787,7.9,189.036,62.559,244.805,143.189v162.97a24,24,0,0,1-24,24Z" transform="translate(707.337 344.001)"/>
      <path id="Intersection_20" data-name="Intersection 20" class="cls-4" d="M0,6.834V0H196.558q4.1,3.365,8.088,6.834Z" transform="translate(702.604 430.478)"/>
      <path id="Intersection_26" data-name="Intersection 26" class="cls-4" d="M.05,302.709a4.621,4.621,0,0,1-.05-.676V0Q4.619,2.374,9.159,4.883v297.15a4.621,4.621,0,0,1-.05.676Z" transform="translate(823.748 379.503)"/>
      <path id="Intersection_29" data-name="Intersection 29" class="cls-4" d="M0,6.834V0H247.924V6.834Z" transform="translate(706.219 554.271)"/>
    </g>
    <g id="Group_298" data-name="Group 298" transform="translate(360.398 558.407)">
      <path id="Path_3761" data-name="Path 3761" class="cls-6" d="M-859.713,5302.409s19.3,90.661,32.647,94.918-19.247-94.918-19.247-94.918Z" transform="translate(1166.087 -5036.027)"/>
      <path id="Path_3762" data-name="Path 3762" class="cls-6" d="M-823.857,5302.409s-19.3,90.661-32.647,94.918,19.247-94.918,19.247-94.918Z" transform="translate(958.998 -5036.027)"/>
      <path id="Path_3763" data-name="Path 3763" class="cls-6" d="M0,.059S19.081,90.647,32.417,94.868,13.4.024,13.4.024Z" transform="matrix(0.995, -0.105, 0.105, 0.995, 333.033, 233.331)"/>
      <path id="Path_3764" data-name="Path 3764" class="cls-6" d="M-.234,94.813S18.777,4.26,32.113.051s-18.94,94.808-18.94,94.808Z" transform="translate(100.941 334.105) rotate(-172)"/>
      <path id="Path_3758" data-name="Path 3758" class="cls-7" d="M-896.192,3984.531s-129.231-122.014-46.557-190.24,127.325,48.352,202.41,52.115,125.587-74.333,157.333,0-32.354,138.125-32.354,138.125Z" transform="translate(970.375 -3772.915)"/>
      <path id="Path_3759" data-name="Path 3759" class="cls-8" d="M-861.538,4827.879c32.609-3.917,90.738-4.234,146.052-3.564,71.791.872,138.808,3.564,138.808,3.564s104.189,7.607,25.314,51.083-261.375,22.885-323.2,0S-936.675,4836.907-861.538,4827.879Z" transform="translate(929.919 -4617.024)"/>
      <path id="Path_3760" data-name="Path 3760" class="cls-9" d="M-865.976,4826.729c30.113-2.746,83.793-2.967,134.874-2.5,66.3.611,128.184,2.5,128.184,2.5s96.215,5.328,23.376,35.782-241.37,16.032-298.463,0S-935.362,4833.053-865.976,4826.729Z" transform="translate(942.146 -4617.024)"/>
    </g>
    <g id="Group_300" data-name="Group 300" transform="translate(499.053 481.924)">
      <path id="Path_3769" data-name="Path 3769" class="cls-10" d="M-503.341,3400.688l38.763,30s-2.569,13.812.782,23.5c.963,5.187,3.835,5.729,5.982,16.858,1.683,8.726-1.67,12.508-7.848,16.192-.194.116.873-4.322,1.1-5.7.659-3.807-.2-5.8-.475-5.8s-.1,3.1-.628,6.073a33.185,33.185,0,0,1-1.473,5.816,3.6,3.6,0,0,1-.774,1.349c-1.287,1.323-4.118,2.52-4.956,2.894-.109.049,1-2.371,1.719-4.633a21.961,21.961,0,0,0,.939-4.122c-.18.083-2.308,6.883-4.4,8.755-1.466,1.316-33.412,7.054-43.82,4.258s-11.382.735-19.659,0-7.784-2.262-10.269-2.393c-.339-.019.693-5.808,3.034-11.27,1.88-4.388,5.339-8.847,3.855-7.471-.258-.015-3.465,3.909-5.123,8.3-1.932,5.111-4.905,10.258-5.192,10.239a50.668,50.668,0,0,1-5.372-.556c-7.03-1.459-3.927-1.294-5.375-1.41-.318-.025,2.959-2.556,4.861-5.845,1.5-2.594,3.47-6.661,3.232-6.681s-2.07,4.011-3.884,6.32c-2.606,3.317-6.151,5.778-6.482,5.75-5.683-.477-9.164-.822-9.164-.822a6.328,6.328,0,0,1,2.334-3.04c19.155-12.543.948-20.459,5.762-33.578s17.741-8.753,26.936-21.9,7.335-16.312,14.88-22.96S-503.341,3400.688-503.341,3400.688Z" transform="translate(573.963 -3400.399)"/>
      <path id="Path_3770" data-name="Path 3770" class="cls-3" d="M1289.285,253.112s-.463-.39.59,17c.634,8.093,19.418,9.831,28.886,11.71,8.458.895-14.235,22.738-41.448,22.239s-43.292-18.821-39.945-21.3,28.669-1.99,29.125-12.646c1.093-7.725.715-12.315-.119-15.52a11.285,11.285,0,0,0-1.037-3.032Z" transform="translate(-1199.765 -177.335)"/>
      <path id="Path_3772" data-name="Path 3772" class="cls-11" d="M1441.006,253.112s-.463-.39.59,17c.373,4.767,7.043,7.329,14.436,9.023,2.419.554,5.558,1.342,5.558,1.342s-7.273,4.328-21.56,4.066c-13.116-.241-17.014-3.095-18.891-5.407-1.954-2.407-3.16-3.5-2.925-9.023,1.092-7.725.715-12.315-.119-15.52a11.275,11.275,0,0,0-1.037-3.032Z" transform="translate(-1351.486 -177.335)"/>
      <path id="Path_3766" data-name="Path 3766" class="cls-3" d="M1032.231,196.966c5.163-5.6,11.222-10.634,24.582-7.7s17.122,7.918,22.829,21.111-.368,50.886-9.844,52.293-28.137-3.1-31.636-10.453a135.037,135.037,0,0,1-5.931-15.014,9.362,9.362,0,0,1-7.368-3.4c-2.984-3.689-4.5-6.327-2.5-10.819s8.221-1.7,8.221-1.7S1027.068,202.564,1032.231,196.966Z" transform="translate(-974.671 -178.44)"/>
      <path id="Path_3768" data-name="Path 3768" class="cls-10" d="M64.907,3463.143a30.941,30.941,0,0,0,4.571,8.821c3.105,3.992,5.033,4.437,4.417,8.749s0,3.619,0,3.619,6.079-9.469,5.695-15.172c-.258-3.827-.367-7.462-4.283-14.595s-11.8-8.216-13.09-8.561C58.3,3444.952,64.907,3463.143,64.907,3463.143Z" transform="translate(33.565 -3438.5)"/>
      <ellipse id="Ellipse_53" data-name="Ellipse 53" class="cls-12" cx="8.2" cy="8.869" rx="8.2" ry="8.869" transform="translate(63.32 51.813)"/>
      <path id="Intersection_8" data-name="Intersection 8" class="cls-12" d="M0,8.87C0,3.971,3.671,0,8.2,0h.014a92.5,92.5,0,0,1-2.7,17.252A8.851,8.851,0,0,1,0,8.87Z" transform="translate(98.802 51.813)"/>
      <path id="Path_3775" data-name="Path 3775" class="cls-12" d="M.089.6c.4-1.9,1.1,1.116,2.65,3.588s3.927,5.362,1.248,6.773-3.286,0-3.286,0S-.309,2.5.089.6Z" transform="matrix(0.995, 0.105, -0.105, 0.995, 89.392, 51.967)"/>
      <path id="Path_3860" data-name="Path 3860" class="cls-10" d="M31.632.46S16.479,2.968,13.294,10.306s2.876,13.7-1.566,18.917S.081,29.369.081,29.369s6.385,3.614,9.569-.475C12.519,25.21,11.344,16.3,11.243,12,11.034,3.05,24.319.066,24.319.066Z" transform="translate(54.5 44.342) rotate(-9)"/>
      <path id="Path_3861" data-name="Path 3861" class="cls-10" d="M.006,0S.148,4.417,1.37,6.872c2.141,4.3,7.555,8.87,8.852,15.363A16.73,16.73,0,0,1,8.328,33.359c-2.349,3.727-7.5,3.785-7.5,3.785s5-1.913,6.253-5.248c.92-2.45.572-6.766.517-7.395C7.062,18.415.752,9.033.6,8.373A45.565,45.565,0,0,1,.006,0Z" transform="matrix(0.998, -0.07, 0.07, 0.998, 108.472, 44.556)"/>
      <path id="Union_13" data-name="Union 13" class="cls-10" d="M9.616,71.253S.252,60.966.009,52.006a23.586,23.586,0,0,1,3.476-13.1L1.094,37.94S-.594,15.68,11.932,7.145C22.679-.177,28.989-1.1,38.644.952c1.555.331,3.237.75,5.045,1.236A21.661,21.661,0,0,1,58.965,17.614s-3.185,11.067-6.3,15.61S46.02,39.273,40.9,40.563c-.986.249-2.3.483-3.824.7-4.718,1.35-11.479,4.033-13.47,8.659-3.156,7.331,3.759,14.521,1.073,21.329-.9,2.27-2.868,3.026-5.1,3.026C15.117,74.279,9.616,71.253,9.616,71.253Z" transform="translate(42.59 0)"/>
    </g>
    <path id="Path_3920" data-name="Path 3920" class="cls-13" d="M-1669.229,14259.54c.506-.727-1.221-9.451-7.365-7.93s-5.158,26.2-2.463,37.374a207.192,207.192,0,0,1,4.807,34.08l3.283,1.135a272.93,272.93,0,0,0-6.525-36.106c-1.277-4.824-3.19-31.954,1.118-34.648S-1669.509,14259.941-1669.229,14259.54Z" transform="translate(2508.54 -13484.742)"/>
    <path id="Path_3851" data-name="Path 3851" class="cls-14" d="M0,.093.029,3.257A8.494,8.494,0,0,0,6.345,7.376c4.695.754,8.726-1.109,11.289-.683S43.725,9.186,43.725,9.186A14.165,14.165,0,0,0,48.872,8a5.583,5.583,0,0,0,2.866-3.113A11.644,11.644,0,0,0,53.073.86a5.4,5.4,0,0,0-.062-1.217Z" transform="matrix(0.574, 0.819, -0.819, 0.574, 653.98, 948.599)"/>
    <path id="Path_3852" data-name="Path 3852" class="cls-15" d="M.713-.006S-.446,1.229.165,2.166,2.1,5.026,6.224,5.715s11.14-.335,11.14-.335,11.858.785,13.614,1.175,17.437.2,17.437.2L33.541.37Z" transform="matrix(0.574, 0.819, -0.819, 0.574, 655.377, 947.635)"/>
    <path id="Path_3850" data-name="Path 3850" class="cls-14" d="M792.074,6237.116v2.993a8.079,8.079,0,0,0,6.176,3.81c4.612.65,8.594-1.168,11.112-.8s25.645,2,25.645,2a14.643,14.643,0,0,0,5.074-1.187,5.541,5.541,0,0,0,2.848-2.984,10.942,10.942,0,0,0,1.35-3.833,4.893,4.893,0,0,0-.049-1.15Z" transform="translate(16.214 -5265.253)"/>
    <path id="Path_3849" data-name="Path 3849" class="cls-15" d="M792.806,6231.551s-1.155,1.269-.563,2.215,1.866,2.885,5.92,3.537,10.962-.47,10.962-.47,11.656.659,13.379,1.036,17.151,0,17.151,0l-14.558-6.318Z" transform="translate(16.214 -5261.597)"/>
    <path id="Path_3777" data-name="Path 3777" class="cls-16" d="M35.913,8.295,48.206,31l46.2,58.95,49.043,63.656s16,5.145,23.048,8.829c6.789,3.548,13.929,5.727,11.753,8.6s-15.3,3.445-18.054,2.921c-4.926-.936-5.717-1.113-12.752-1.125s-9.7,3.744-15.39,1.076c-3.191-1.5-1.5-9.706-5.036-16.751-2.072-4.126-43.728-30.931-73.148-56.57C44.907,92.771-.035,43.361-.035,43.361S-1.134,3.157,14.383.426,35.913,8.295,35.913,8.295Z" transform="matrix(0.998, 0.07, -0.07, 0.998, 692.57, 789.41)"/>
    <path id="Path_3779" data-name="Path 3779" class="cls-17" d="M-312.242,5120.618l102.445,20.344s16.58,7.854,4.464,23.643-36.084,17.56-36.084,17.56-13.285,4.835-37.593-5.689S-333.67,5164.6-333.67,5164.6Z" transform="translate(939.651 -4388.801)"/>
    <path id="Path_3780" data-name="Path 3780" class="cls-18" d="M35.458,7.74l7.527,12.514L96.937,87.591l50.5,62.984s16.334,5.2,23.544,8.886c6.943,3.548,14.233,5.754,12.043,8.554s-15.542,3.242-18.355,2.7c-5.024-.965-7.311-1.919-11.862-1.7s-5.824,1.83-9.479,2.381c-2.356.356-5.444.639-7.794-1.585s-2.186-3.377-1.607-7.309-.868-5.633-3.187-8.6c-3.25-3.691-44.8-30.789-74.979-56.247C46.566,89.9.368,40.951.368,40.951S-4.13,2.822,11.643.283,35.458,7.74,35.458,7.74Z" transform="translate(730.229 746.573) rotate(59)"/>
    <path id="Path_3839" data-name="Path 3839" class="cls-19" d="M36.8,51.458c5.027-2.689,16.965-3.7,25.7-8,5.869-2.886,7.7-4.928,19.934-11.443,7.231-3.85,25.368-15.651,25.368-15.651L88.052.545A216.372,216.372,0,0,1,63.918,12.883C52.165,17.775,30.761,28.317,19.589,35.052,11.491,39.931,5.176,46.663,2.818,52.58c-5.264,13.206-.259,29.684-.29,27.378S21.921,59.412,36.8,51.458Z" transform="translate(681.664 612.238) rotate(112)"/>
    <path id="Path_3848" data-name="Path 3848" class="cls-15" d="M974.342,6174.358c-.617-.015-.94.708-.94.708l1.359.759s1.635,7.337.419,10.7c-1.657,4.58-3.226,5.434-3.226,5.434s15.977,2.361,18.842,0,3.694-6.25,2.777-7.145a33.453,33.453,0,0,0-8.067-6.083A52.764,52.764,0,0,0,974.342,6174.358Z" transform="translate(-133.485 -5215.875)"/>
    <path id="Path_3853" data-name="Path 3853" class="cls-15" d="M2.114-.017a1.134,1.134,0,0,0-.949.624l1.39.7s1.739,6.6.537,9.608C1.455,15-.131,15.751-.131,15.751s16.268,2.306,19.156.22,3.69-5.566,2.749-6.379A34.86,34.86,0,0,0,13.51,4.039,59.4,59.4,0,0,0,2.114-.017Z" transform="matrix(0.574, 0.819, -0.819, 0.574, 680.686, 967.579)"/>
    <path id="Intersection_12" data-name="Intersection 12" class="cls-12" d="M.7,14.093A10.515,10.515,0,0,1,0,10.317,10.194,10.194,0,0,1,10.067,0,10.025,10.025,0,0,1,18.82,5.217c-2.074,4.052-4.864,8.94-6.612,9.523a17.241,17.241,0,0,1-5.218.778A13.135,13.135,0,0,1,.7,14.093Z" transform="translate(627.867 694.935)"/>
    <path id="Intersection_13" data-name="Intersection 13" class="cls-12" d="M2.808,13.191C1.289,11.355-.544,8.854.152,5.694S1.92,2.081,5.589.552A11.72,11.72,0,0,0,6.744,0a8.057,8.057,0,0,1,4.212,7.213A7.821,7.821,0,0,1,4.719,15.1,14.464,14.464,0,0,1,2.808,13.191Z" transform="translate(654.326 944.515)"/>
    <path id="Intersection_14" data-name="Intersection 14" class="cls-12" d="M1.949,8.241C.394,7.375.2,4.887,0,1.7A7.008,7.008,0,0,1,4.555,0c4.077,0,7.382,3.575,7.382,7.984q0,.316-.022.626c-.389.074-.766.153-1.135.232A20.636,20.636,0,0,1,6.473,9.5,8.974,8.974,0,0,1,1.949,8.241Z" transform="translate(810.224 963.861)"/>
    <path id="Path_3862" data-name="Path 3862" class="cls-20" d="M34.372,10.964S35.93,20.1,33.8,22.193s-14.723,3.917-14.723,3.917a15.477,15.477,0,0,1-3.952-4.873c-1.736-3.249-.608-8.739-2.788-10.267s-4.58-.287-7.853-.437C1.131,10.378-1.308,9.1.845,8.334c1.822-.652,7.59-1.4,12.73-3.782a41.474,41.474,0,0,0,11.439-1.8A15.255,15.255,0,0,0,29.226.662C33.732-2.771,34.372,10.964,34.372,10.964Z" transform="matrix(-0.208, 0.978, -0.978, -0.208, 622.037, 593.466)"/>
    <path id="Path_3918" data-name="Path 3918" class="cls-21" d="M-1760.59,14271.388c-.506-.728,8.21-9.516,14.143-8.757s8.548,4.06,10.684,8.757,6.69,50.672,6.69,50.672h-3.146s-3.65-45.056-5.116-49.143-3.547-8.191-9.112-8.7S-1760.083,14272.115-1760.59,14271.388Z" transform="translate(2569.958 -13459.93)"/>
    <g id="Group_380" data-name="Group 380" transform="translate(774.924 788.668)">
      <path id="Path_3911" data-name="Path 3911" class="cls-22" d="M20.363,33.733s1.7,18.495,15.354,15.893S56.406-11.6,50.8,2.419,1.475,4.749.168,20.827,20.363,33.733,20.363,33.733Z" transform="translate(65.267 47.471) rotate(163)"/>
      <path id="Path_3912" data-name="Path 3912" class="cls-23" d="M.2,33.5S1.9,52,15.554,49.4C27.285,47.164,34.128,3.591,32.242.185c-.277-.5-1.342,6.185-2.133,8.162-3.881,9.7-5.838,13.534-18.5,18.136S.2,33.5.2,33.5Z" transform="translate(45.918 53.147) rotate(163)"/>
    </g>
    <path id="Path_3919" data-name="Path 3919" class="cls-13" d="M-1693.23,14302.052c.981-.771-3.026-10.677-6.427-7.881s-6.151,16.813-7.179,19.071c-2.137,4.693-9.062,38.557-9.062,38.557l2.564-3.993s7.77-31.217,9.236-35.3c.167-.466,4.053-15.642,4.731-16.417C-1696.661,14293-1694.026,14302.677-1693.23,14302.052Z" transform="translate(2548.519 -13491.692)"/>
    <path id="Path_3921" data-name="Path 3921" class="cls-21" d="M.029,2C-.2,1.841,1.187.205,4.2.044c5.84-.313,10.984,1.738,12.97,5.608.512,1,4.222,7.087,3.819,13.143-1.152,17.3-7.373,47.8-7.373,47.8L9.558,68.254s7.672-30.541,9.32-48.271c.485-5.222-.777-11.212-3.923-14.762s-4.9-3.466-10.963-3.714C-.3,1.33.265,2.171.029,2Z" transform="translate(815.572 782.711) rotate(-8)"/>
    <g id="Group_381" data-name="Group 381" transform="translate(790.645 764.317) rotate(14)">
      <path id="Path_3915" data-name="Path 3915" class="cls-24" d="M18.317,24.545s.829,13.1,13.646,10.833S53.7-8.773,47.915,1.362,1.914,4.513.045,15.983,18.317,24.545,18.317,24.545Z" transform="matrix(-1, -0.017, 0.017, -1, 49.569, 36.408)"/>
      <path id="Path_3916" data-name="Path 3916" class="cls-25" d="M-.085,24.539s.829,13.1,13.646,10.833C24.57,33.428,32.708,2.245,31.091-.118c-.237-.35-1.5,4.438-2.317,5.867-4.006,7.014-5.984,9.8-17.951,13.453S-.085,24.539-.085,24.539Z" transform="matrix(-1, -0.017, 0.017, -1, 31.17, 36.081)"/>
    </g>
    <g id="Group_382" data-name="Group 382" transform="translate(808.174 776.44) rotate(-42)">
      <path id="Path_3913" data-name="Path 3913" class="cls-26" d="M21.786,23.26s-.412,12.168-9.218,9.965S-2.849-7.989,1.236,1.478,32.784,4.766,34.2,15.443,21.786,23.26,21.786,23.26Z" transform="matrix(-0.695, -0.719, 0.719, -0.695, 24.08, 48.123)"/>
      <path id="Path_3914" data-name="Path 3914" class="cls-27" d="M21.773,23.181s-.412,12.168-9.218,9.965C4.991,31.253-.954,2.2.126.017.284-.307,1.206,4.154,1.783,5.489,4.61,12.04,6,14.644,14.238,18.135S21.773,23.181,21.773,23.181Z" transform="matrix(-0.695, -0.719, 0.719, -0.695, 24.128, 48.059)"/>
    </g>
    <path id="Path_3917" data-name="Path 3917" class="cls-28" d="M-1471.856,14110.215h17.713s-2.487,3.488,0,10.429c4.23,11.807,8.852,12.916,9.758,23.013s-5.729,16.194-8.151,17.377-16.327,2.051-19.96,0-7.925-4.673-7.765-17.377c.1-8.042,5.808-16.092,8.4-23.013A13.432,13.432,0,0,0-1471.856,14110.215Z" transform="translate(2298.227 -13280.654)"/>
    <g id="Group_379" data-name="Group 379" transform="matrix(0.719, 0.695, -0.695, 0.719, 852.108, 788.953)">
      <path id="Path_3909" data-name="Path 3909" class="cls-29" d="M16.846,13.014S17.626-2.605,29.489.071,49.577,52.684,44.227,40.608,1.641,36.932-.078,23.258,16.846,13.014,16.846,13.014Z" transform="translate(0 0)"/>
      <path id="Path_3910" data-name="Path 3910" class="cls-30" d="M-.1,13.164S.684-2.455,12.548.221c10.191,2.3,17.7,39.47,16.2,42.292-.22.418-1.385-5.29-2.14-6.992C22.9,27.164,21.074,23.846,10,19.509S-.1,13.164-.1,13.164Z" transform="translate(16.941 -0.15)"/>
    </g>
    <g id="Group_384" data-name="Group 384" transform="translate(835.978 606.087)">
      <path id="Path_3924" data-name="Path 3924" class="cls-31" d="M55.959,129.014C37.076,93.419-.642,60.18-.279,35.021S3.906-.028,3.906-.028s8.485-1.267,20.061,40.921,44.291,79.222,49.318,97.346,8.8,48.558,8.8,48.558S74.841,164.61,55.959,129.014Z" transform="matrix(0.848, 0.53, -0.53, 0.848, 100.61, 0)"/>
      <path id="Path_3925" data-name="Path 3925" class="cls-32" d="M57.037,122.77C45.679,101.3,8.984,55.823,9.347,30.664S0,0,0,0,8.485-1.263,20.061,40.924s44.291,79.222,49.318,97.346,8.8,48.558,8.8,48.558S68.4,144.24,57.037,122.77Z" transform="matrix(0.848, 0.53, -0.53, 0.848, 103.939, 2.044)"/>
    </g>
    <g id="Group_383" data-name="Group 383" transform="matrix(0.998, -0.07, 0.07, 0.998, 880.143, 577.503)">
      <path id="Path_3926" data-name="Path 3926" class="cls-33" d="M18.864,122.191c-4.871-74.6-3.822-109.539-.95-119.84,1.732-6.211-9.3-.564-14.775,24.432C-.45,43.161,1.1,76.225.6,90.514c-1.261,35.992,1.071,135.11,1.071,135.11S23.734,196.787,18.864,122.191Z" transform="matrix(0.999, -0.035, 0.035, 0.999, 0.001, 0.662)"/>
      <path id="Path_3927" data-name="Path 3927" class="cls-34" d="M17.379,121.571c-4.858-74.636-3.838-109.6-1-119.9S5.945,31.218,9.885,78.227s1.512,69.329.772,92.534C9.213,216.11.418,225.055.418,225.055S22.237,196.207,17.379,121.571Z" transform="matrix(0.999, -0.035, 0.035, 0.999, 1.456, 1.187)"/>
    </g>
    <g id="Group_386" data-name="Group 386" transform="translate(839.416 658.461) rotate(1)">
      <path id="Path_3928" data-name="Path 3928" class="cls-35" d="M37.9,142.339s13.987-59.388-4.3-88.556c-6.034-9.625,4.207-22.358-9.391-36.129S-3.605-8.2.838,7.2C7.47,30.2,21.779,53.319,26.415,80.6S37.9,142.339,37.9,142.339Z" transform="matrix(0.978, -0.208, 0.208, 0.978, -0.003, 8.726)"/>
      <path id="Path_3929" data-name="Path 3929" class="cls-36" d="M37.18,139.19s7.516-24.913-6.548-63.226C24.649,66.269,26.568,41.9,19.323,26.6S-3.618-10.138.764,5.4C7.3,28.581,21.375,49.4,25.915,76.916S37.18,139.19,37.18,139.19Z" transform="matrix(0.978, -0.208, 0.208, 0.978, 1.182, 11.582)"/>
    </g>
    <path id="Path_3908" data-name="Path 3908" class="cls-37" d="M-1484.2,14095.911h44.143s-3.422,8.859-4.166,14.863,16.249,65.137,14.724,75.108-6.825,14.36-14.724,16.584-34.411,0-34.411,0-15.573-1.8-15.913-16.584,15.913-75.108,15.913-75.108Z" transform="translate(2368.337 -13322.088)"/>
    <path id="Path_3778" data-name="Path 3778" class="cls-38" d="M-751.229,4947.969l17.519,29.686-21.428,43.986a572.439,572.439,0,0,1,57.207,5.964,491.232,491.232,0,0,1,52.379,11.259l-58.147,31.219s-97.684-1.638-112.764-17.315-22.9-33.653-23.628-54.768,19.519-50.03,19.519-50.03Z" transform="translate(1361.119 -4245.838)"/>
    <path id="Path_3846" data-name="Path 3846" class="cls-2" d="M-762.378,4947.969l17.519,29.686-8,16.427-9.517,20.2s25.125,3.508,44.735,9.8,29.127,14.034,29.127,14.034-.478,19.992-3.073,30.324c-1.236,4.918-2.83,11.709-4.206,19.321-1.5,8.321-2.735,17.264-2.735,17.264a378.965,378.965,0,0,0-41.9-17.264c-17.073-5.756-36.735-9.46-43.8-10.812-23.14-4.428-42.407-18.158-47.489-23.442-15.081-15.678-21.616-29.231-21.785-54.886s21.785-50.657,21.785-50.657Z" transform="translate(1372.268 -4245.838)"/>
    <path id="Path_3847" data-name="Path 3847" class="cls-39" d="M-312.242,5120.618l102.906,19.494s6.731,2.339,11.22,11.216,11.033,23.052,11.033,23.052-11.577,12.395-24.466,19.374-32.349,10.636-32.349,10.636l-14.252,2.905,2.239-26.028a65.5,65.5,0,0,1-23.1-4.792c-24.308-10.524-54.659-11.871-54.659-11.871l8.1-24.493Z" transform="translate(939.651 -4388.801)"/>
    <g id="Group_390" data-name="Group 390">
      <path id="Path_3843" data-name="Path 3843" class="cls-40" d="M-737.077,4122.514a121.254,121.254,0,0,0,27.8,3.826,116.3,116.3,0,0,0,27.446-3.826l-28.374,66.8Z" transform="translate(1287.957 -3521.395)"/>
      <path id="Path_3845" data-name="Path 3845" class="cls-40" d="M44.634,39.984c5.224-2.748,14.626-5.167,23.7-9.573,2.918-1.418-.279-12.762-5-19.444A35.327,35.327,0,0,0,50.9.315S32.9,12.92,21.272,19.772C12.845,24.736,5.252,31.636,2.695,37.485c-5.707,13.056.61,30.627.631,28.369S29.18,48.115,44.634,39.984Z" transform="translate(671.673 607.664) rotate(112)"/>
      <path id="Path_3842" data-name="Path 3842" class="cls-41" d="M-721.445,4263.417a49.343,49.343,0,0,1,7.11,1.553,37.094,37.094,0,0,1,5.776,2.49,159.815,159.815,0,0,1,.886,41.814,193.087,193.087,0,0,1-7.39,31.556c-4.656,13.812-3.544,27.556-4.341,33.3s-2.205,6.99-2.205,6.99-18.4,3.373-31.059,3.373-19.6-3.373-19.6-3.373-4.061-.352-8.724-.987-9.928-1.551-9.928-1.551a10.01,10.01,0,0,1-3.555-7.059c-.528-10.758,1.158-31.071-3.7-41.6-8.238-17.856-6.064-63.643-6.064-63.643a46.251,46.251,0,0,1,6.462-2.01,46.757,46.757,0,0,1,7.446-.853s17.651,16.842,24.581,31.083,11.907,46.319,11.907,46.319,2.753-32.783,10.917-46.319S-721.445,4263.417-721.445,4263.417Z" transform="translate(1331.499 -3678.994)"/>
    </g>
    <rect id="Rectangle_118" data-name="Rectangle 118" class="cls-42" width="18.121" height="35.249" rx="2" transform="translate(594.517 590.885)"/>
    <path id="Path_2947" data-name="Path 2947" class="cls-43" d="M89.084,2.183s4.6-2.72,9.149-1.536,10.837,3.064,11.855,4.8c1.746,2.971,3.619,9.515.632,13.72-4.98,7.01-19.384,12.548-32.308,19.905-20.547,11.7-43.871,19.142-43.871,19.142s1.558,9.133-.57,11.229-14.723,3.917-14.723,3.917A15.477,15.477,0,0,1,15.3,68.484c-1.736-3.249-.608-8.739-2.788-10.267s-4.58-.287-7.853-.437c-3.356-.155-5.794-1.428-3.641-2.2,1.822-.652,7.59-1.4,12.73-3.782A41.473,41.473,0,0,0,25.184,50a15.255,15.255,0,0,0,4.211-2.088c4.506-3.433,14.5-11.567,24.386-18.7C67.459,19.335,78.235,12.063,89.084,2.183Z" transform="matrix(-0.208, 0.978, -0.978, -0.208, 668.287, 603.124)"/>
    <g id="Group_391" data-name="Group 391">
      <g id="Group_389" data-name="Group 389">
        <g id="Group_372" data-name="Group 372" transform="translate(532.018 655.198) rotate(8)">
          <path id="Path_3864" data-name="Path 3864" class="cls-44" d="M0,0S29.848,4.656,27.864,7.344s-4.19,4.834-6.591,3.688-4.7.836-9.454,2.369A39.308,39.308,0,0,1,1.232,14.885Z" transform="translate(99.486 54.701)"/>
          <path id="Path_3866" data-name="Path 3866" class="cls-45" d="M14.748-.036S6.564,5.912,3.081,13.862-.727,26.2.818,31.767s5.143,11.7,15.816,12.015,13.585-3.037,15.506-5.471S30.179,29.249,21.3,30.89,10.353,32.668,8.624,27.712s-1.094-8.426.913-12.669,8.7-11.278,8.7-11.278Z" transform="translate(-0.238 96.783)"/>
          <path id="Path_3863" data-name="Path 3863" class="cls-46" d="M45.658,12.4a38.252,38.252,0,0,1,4.374-2.487,31.459,31.459,0,0,1,4.449-1.646S52.9-1.216,56.224-.033s7.821,9.255,9.728,10.5A6.29,6.29,0,0,1,68.407,13.2a7.785,7.785,0,0,1,5.839,2.624,9.5,9.5,0,0,1,2.033,7.782c-.4,1.94-1.214,1.684-1.38,6.176s.446,7.439,1.431,9.243,3.962,6.466,3.962,6.466S89.1,55.76,90.69,59.4s2.176,7.013,1.178,9.731-8.1,9.469-8.1,9.469S15.128,105.389,9.18,105.62.171,100.988-.2,97.239,2.194,84.8,6.7,79.389s17.236-12.74,23.2-18.53,12.592-5.925,13.112-15.5c.33-6.077-2.278-12.6-4.249-16.6-1.1-2.224-3.125-3.1-4.127-8.158a28.964,28.964,0,0,1,.4-13.3C36.022,4,45.658,12.4,45.658,12.4Z" transform="translate(12.439 -0.03)"/>
          <path id="Path_3867" data-name="Path 3867" class="cls-47" d="M33-.066a8.962,8.962,0,0,1,1.769,7.66c-.4,1.94-1.214,1.684-1.38,6.176s.816,6.585,1.8,8.389,4.1,7.341,4.1,7.341,8.657,9.85,10.251,13.49,1.811,7.411.813,10.13-8.1,9.469-8.1,9.469-3.726,1.454-9.553,3.7c-8.458,3.263,3.882-2.448-2.479-17.638C28,43.354,6.075,36.746.137,29.752c-.669-.788.437-2.247.947-4.065C1.405,24.543.87,23.052.9,22.635c.184-2.222,3.317-9.418,13.767-10.886S22.309.094,25.493,1.426C28.646,2.744,32.8-.312,33-.066Z" transform="translate(53.973 16.151)"/>
          <path id="Path_3865" data-name="Path 3865" class="cls-48" d="M10.241-.025S40.09,4.632,38.105,7.319s-4.19,4.834-6.591,3.688-4.7.836-9.454,2.369S-.048,19.53-.048,19.53,2.272,12.059,4.236,7.2A15.964,15.964,0,0,1,10.241-.025Z" transform="translate(74.013 67.538)"/>
          <path id="Path_3868" data-name="Path 3868" class="cls-49" d="M7.863,5.068C8.056,4.162.972-1.242.413.26S-.311,11.826.89,12.192c.595.181,2.152-2.31,3.742-4.04C6.184,6.462,7.765,5.525,7.863,5.068Z" transform="translate(48.583 8.547)"/>
          <path id="Path_3869" data-name="Path 3869" class="cls-50" d="M.471,6.366C-.083,6.41-.276.094.553,0S6.1,4.695,5.8,5.429c-.118.3-1.171.118-2.5.352S1.025,6.323.471,6.366Z" transform="translate(68.42 1.321)"/>
          <path id="Path_3882" data-name="Path 3882" class="cls-51" d="M-.006,2.4a15.4,15.4,0,0,0,2.3-.166C2.621,2.1,2.961.48,2.961.48S1.574-.315.92.134-.006,2.4-.006,2.4Z" transform="translate(77.461 17.364)"/>
          <path id="Path_3883" data-name="Path 3883" class="cls-51" d="M0,0S5.23.068,17.936,7.691c6.751,4.05,10.736,8.554,10.383,9.023-.421.561-2.211-3.531-10.888-8.887C5.486.456,0,0,0,0Z" transform="translate(43.694 29.452) rotate(-47)"/>
          <path id="Path_3884" data-name="Path 3884" class="cls-51" d="M0,0S1.23-.409,13.973,7.187c6.77,4.036,10.766,8.525,10.412,8.994-.422.559-2.216-3.52-10.919-8.857C1.487-.022,0,0,0,0Z" transform="translate(46.965 31.344) rotate(-54)"/>
          <path id="Path_3885" data-name="Path 3885" class="cls-51" d="M.007.536S-.509-2.323,12.269,5.258c6.789,4.028,10.8,8.507,10.442,8.974-.423.558-2.223-3.512-10.95-8.838C-.251-1.938.007.536.007.536Z" transform="translate(50.782 34.705) rotate(-60)"/>
          <path id="Path_3886" data-name="Path 3886" class="cls-51" d="M-.114,16.767S3.118,15.839,9.342,8.2c3.306-4.061,4.8-7.985,4.475-8.265C13.432-.4,13.216,2.854,9,8.182,3.193,15.515-.114,16.767-.114,16.767Z" transform="matrix(-0.956, -0.292, 0.292, -0.956, 93.254, 20.467)"/>
          <path id="Path_3887" data-name="Path 3887" class="cls-51" d="M-.09,13.56s.845.223,8.079-6.258C11.833,3.859,13.83.267,13.542-.056c-.344-.386-.976,2.755-5.9,7.291C.872,13.479-.09,13.56-.09,13.56Z" transform="matrix(-0.961, -0.276, 0.276, -0.961, 93.805, 20.319)"/>
          <path id="Path_3888" data-name="Path 3888" class="cls-51" d="M-.112,12.97s.352,2.1,6.688-5.153C9.942,3.965,11.428.207,11.091-.071,10.688-.4,10.511,2.74,6.22,7.8.313,14.756-.112,12.97-.112,12.97Z" transform="translate(90.944 22.631) rotate(-150)"/>
        </g>
        <path id="Union_11" data-name="Union 11" class="cls-52" d="M91.927,137.466c-2.723-3.285-2.993-5.717-2.993-5.717s-2.859-1.493-4.585-1.082c-7.165,1.709-25.025,7.748-43.493,7.9-14.5.122-25.773-2.325-33.264-6-4.494-2.206-6.458-5.033-7.177-6.645s-.287-5.913-.287-5.913l.287-9.724.142.006C1.384,97.46,4.784,45.689,6.531,34.022c1.445-9.673,5.207-18.353,9.671-22.914,3.768-3.849,5.666-5.782,10.247-7.617a3.894,3.894,0,0,1,3.218,0L26.45,25.125S28.812,36.7,28.3,41.772c-.591,5.873,2.8,23.862,2.113,33.921-.463,6.758-.7,9.592-2.113,23.875a99.343,99.343,0,0,1-2.114,12.183,310.284,310.284,0,0,0,31.422,5.282c11.785,1.251,34.146,3.756,34.146,3.756s6.8.071,11.661,3.341,7.773,9.738,7.773,9.738l-3.554,11.583L95.23,135.326s3.943,6.606,4.6,9.562c.109.491.038.7-.167.7C98.63,145.592,94.2,140.205,91.927,137.466Z" transform="translate(499.297 584.844)"/>
      </g>
      <path id="Intersection_11" data-name="Intersection 11" class="cls-12" d="M7.592,19.555C3.1,17.349,1.134,14.522.415,12.911S.128,7,.128,7L.3,1.236A9.832,9.832,0,0,1,5.08,0,10.194,10.194,0,0,1,15.147,10.317a10.311,10.311,0,0,1-6.6,9.689Q8.059,19.784,7.592,19.555Z" transform="translate(499.297 697.858)"/>
    </g>
    <path id="Path_3932" data-name="Path 3932" class="cls-40" d="M57.192,31.149c3.241,1.2,7.015,2.668,10.734,4.475,2.918,1.418-.279,12.762-5,19.444A35.327,35.327,0,0,1,50.5,65.719s-18.006-12.6-29.631-19.456C12.442,41.3,4.848,34.4,2.291,28.549a34.168,34.168,0,0,1-2.309-15.4c.037-.715.3-3.646.3-3.646a180.721,180.721,0,0,0,21.337,9.713C31.9,22.952,51.849,29.179,57.192,31.149Z" transform="translate(539.095 582.27) rotate(68)"/>
    <path id="Path_3933" data-name="Path 3933" class="cls-53" d="M34.541,58.211s1.558,9.133-.57,11.229-14.723,3.917-14.723,3.917A15.477,15.477,0,0,1,15.3,68.484c-1.736-3.249-.608-8.739-2.788-10.267s-4.58-.287-7.853-.437c-3.356-.155-5.794-1.428-3.641-2.2,1.822-.652,7.59-1.4,12.73-3.782A41.473,41.473,0,0,0,25.184,50Z" transform="matrix(-0.208, 0.978, -0.978, -0.208, 668.287, 603.124)"/>
  </g>
</svg>
